<?xml version="1.0" encoding="UTF-8" standalone="no"?>
<!DOCTYPE svg PUBLIC "-//W3C//DTD SVG 1.1//EN"
 "http://www.w3.org/Graphics/SVG/1.1/DTD/svg11.dtd">
<!-- Generated by graphviz version 2.36.0 (20140111.2315)
 -->
<!-- Title: controllers_diagram Pages: 1 -->
<svg width="640pt" height="599pt"
 viewBox="0.00 0.00 640.00 599.00" xmlns="http://www.w3.org/2000/svg" xmlns:xlink="http://www.w3.org/1999/xlink">
<g id="graph0" class="graph" transform="scale(1 1) rotate(0) translate(4 595)">
<title>controllers_diagram</title>
<polygon fill="white" stroke="none" points="-4,4 -4,-595 636,-595 636,4 -4,4"/>
<!-- _diagram_info -->
<g id="node1" class="node"><title>_diagram_info</title>
<text text-anchor="start" x="392" y="-447.6" font-family="Times,serif" font-size="13.00">Controllers diagram</text>
<text text-anchor="start" x="392" y="-433.6" font-family="Times,serif" font-size="13.00">Date: May 31 2015 &#45; 13:47</text>
<text text-anchor="start" x="392" y="-419.6" font-family="Times,serif" font-size="13.00">Migration version: 20150526122846</text>
<text text-anchor="start" x="392" y="-405.6" font-family="Times,serif" font-size="13.00">Generated by RailRoady 1.3.0</text>
<text text-anchor="start" x="392" y="-391.6" font-family="Times,serif" font-size="13.00">http://railroady.prestonlee.com</text>
</g>
<!-- Admin::HomeController -->
<g id="node2" class="node"><title>Admin::HomeController</title>
<path fill="none" stroke="black" d="M12,-0.5C12,-0.5 140,-0.5 140,-0.5 146,-0.5 152,-6.5 152,-12.5 152,-12.5 152,-81.5 152,-81.5 152,-87.5 146,-93.5 140,-93.5 140,-93.5 12,-93.5 12,-93.5 6,-93.5 0,-87.5 0,-81.5 0,-81.5 0,-12.5 0,-12.5 0,-6.5 6,-0.5 12,-0.5"/>
<text text-anchor="middle" x="76" y="-78.3" font-family="Times,serif" font-size="14.00">Admin::HomeController</text>
<polyline fill="none" stroke="black" points="0,-70.5 152,-70.5 "/>
<text text-anchor="start" x="8" y="-55.3" font-family="Times,serif" font-size="14.00">index</text>
<polyline fill="none" stroke="black" points="0,-47.5 152,-47.5 "/>
<polyline fill="none" stroke="black" points="0,-23.5 152,-23.5 "/>
<text text-anchor="start" x="8" y="-8.3" font-family="Times,serif" font-size="14.00">_layout</text>
</g>
<!-- Admin::ContactsController -->
<g id="node3" class="node"><title>Admin::ContactsController</title>
<path fill="none" stroke="black" d="M12,-480.5C12,-480.5 153,-480.5 153,-480.5 159,-480.5 165,-486.5 165,-492.5 165,-492.5 165,-561.5 165,-561.5 165,-567.5 159,-573.5 153,-573.5 153,-573.5 12,-573.5 12,-573.5 6,-573.5 0,-567.5 0,-561.5 0,-561.5 0,-492.5 0,-492.5 0,-486.5 6,-480.5 12,-480.5"/>
<text text-anchor="middle" x="82.5" y="-558.3" font-family="Times,serif" font-size="14.00">Admin::ContactsController</text>
<polyline fill="none" stroke="black" points="0,-550.5 165,-550.5 "/>
<text text-anchor="start" x="8" y="-535.3" font-family="Times,serif" font-size="14.00">index</text>
<polyline fill="none" stroke="black" points="0,-527.5 165,-527.5 "/>
<polyline fill="none" stroke="black" points="0,-503.5 165,-503.5 "/>
<text text-anchor="start" x="8" y="-488.3" font-family="Times,serif" font-size="14.00">_layout</text>
</g>
<!-- Admin::NewsController -->
<g id="node4" class="node"><title>Admin::NewsController</title>
<path fill="none" stroke="black" d="M348,-144.5C348,-144.5 473,-144.5 473,-144.5 479,-144.5 485,-150.5 485,-156.5 485,-156.5 485,-345.5 485,-345.5 485,-351.5 479,-357.5 473,-357.5 473,-357.5 348,-357.5 348,-357.5 342,-357.5 336,-351.5 336,-345.5 336,-345.5 336,-156.5 336,-156.5 336,-150.5 342,-144.5 348,-144.5"/>
<text text-anchor="middle" x="410.5" y="-342.3" font-family="Times,serif" font-size="14.00">Admin::NewsController</text>
<polyline fill="none" stroke="black" points="336,-334.5 485,-334.5 "/>
<text text-anchor="start" x="344" y="-319.3" font-family="Times,serif" font-size="14.00">create</text>
<text text-anchor="start" x="344" y="-304.3" font-family="Times,serif" font-size="14.00">destroy</text>
<text text-anchor="start" x="344" y="-289.3" font-family="Times,serif" font-size="14.00">edit</text>
<text text-anchor="start" x="344" y="-274.3" font-family="Times,serif" font-size="14.00">index</text>
<text text-anchor="start" x="344" y="-259.3" font-family="Times,serif" font-size="14.00">new</text>
<text text-anchor="start" x="344" y="-244.3" font-family="Times,serif" font-size="14.00">show</text>
<text text-anchor="start" x="344" y="-229.3" font-family="Times,serif" font-size="14.00">update</text>
<polyline fill="none" stroke="black" points="336,-221.5 485,-221.5 "/>
<polyline fill="none" stroke="black" points="336,-197.5 485,-197.5 "/>
<text text-anchor="start" x="344" y="-182.3" font-family="Times,serif" font-size="14.00">_layout</text>
<text text-anchor="start" x="344" y="-167.3" font-family="Times,serif" font-size="14.00">news_params</text>
<text text-anchor="start" x="344" y="-152.3" font-family="Times,serif" font-size="14.00">set_news</text>
</g>
<!-- Admin::AnimalsController -->
<g id="node5" class="node"><title>Admin::AnimalsController</title>
<path fill="none" stroke="black" d="M156,-128.5C156,-128.5 296,-128.5 296,-128.5 302,-128.5 308,-134.5 308,-140.5 308,-140.5 308,-329.5 308,-329.5 308,-335.5 302,-341.5 296,-341.5 296,-341.5 156,-341.5 156,-341.5 150,-341.5 144,-335.5 144,-329.5 144,-329.5 144,-140.5 144,-140.5 144,-134.5 150,-128.5 156,-128.5"/>
<text text-anchor="middle" x="226" y="-326.3" font-family="Times,serif" font-size="14.00">Admin::AnimalsController</text>
<polyline fill="none" stroke="black" points="144,-318.5 308,-318.5 "/>
<text text-anchor="start" x="152" y="-303.3" font-family="Times,serif" font-size="14.00">create</text>
<text text-anchor="start" x="152" y="-288.3" font-family="Times,serif" font-size="14.00">destroy</text>
<text text-anchor="start" x="152" y="-273.3" font-family="Times,serif" font-size="14.00">edit</text>
<text text-anchor="start" x="152" y="-258.3" font-family="Times,serif" font-size="14.00">index</text>
<text text-anchor="start" x="152" y="-243.3" font-family="Times,serif" font-size="14.00">new</text>
<text text-anchor="start" x="152" y="-228.3" font-family="Times,serif" font-size="14.00">show</text>
<text text-anchor="start" x="152" y="-213.3" font-family="Times,serif" font-size="14.00">update</text>
<polyline fill="none" stroke="black" points="144,-205.5 308,-205.5 "/>
<polyline fill="none" stroke="black" points="144,-181.5 308,-181.5 "/>
<text text-anchor="start" x="152" y="-166.3" font-family="Times,serif" font-size="14.00">_layout</text>
<text text-anchor="start" x="152" y="-151.3" font-family="Times,serif" font-size="14.00">animal_params</text>
<text text-anchor="start" x="152" y="-136.3" font-family="Times,serif" font-size="14.00">set_animal</text>
</g>
<!-- Admin::ApplicationController -->
<g id="node6" class="node"><title>Admin::ApplicationController</title>
<path fill="none" stroke="black" d="M348,-16.5C348,-16.5 506,-16.5 506,-16.5 512,-16.5 518,-22.5 518,-28.5 518,-28.5 518,-97.5 518,-97.5 518,-103.5 512,-109.5 506,-109.5 506,-109.5 348,-109.5 348,-109.5 342,-109.5 336,-103.5 336,-97.5 336,-97.5 336,-28.5 336,-28.5 336,-22.5 342,-16.5 348,-16.5"/>
<text text-anchor="middle" x="427" y="-94.3" font-family="Times,serif" font-size="14.00">Admin::ApplicationController</text>
<polyline fill="none" stroke="black" points="336,-86.5 518,-86.5 "/>
<text text-anchor="start" x="344" y="-71.3" font-family="Times,serif" font-size="14.00">after_sign_in_path_for</text>
<polyline fill="none" stroke="black" points="336,-63.5 518,-63.5 "/>
<polyline fill="none" stroke="black" points="336,-39.5 518,-39.5 "/>
<text text-anchor="start" x="344" y="-24.3" font-family="Times,serif" font-size="14.00">_layout</text>
</g>
<!-- HomeController -->
<g id="node7" class="node"><title>HomeController</title>
<path fill="none" stroke="black" d="M364,-496.5C364,-496.5 446,-496.5 446,-496.5 452,-496.5 458,-502.5 458,-508.5 458,-508.5 458,-577.5 458,-577.5 458,-583.5 452,-589.5 446,-589.5 446,-589.5 364,-589.5 364,-589.5 358,-589.5 352,-583.5 352,-577.5 352,-577.5 352,-508.5 352,-508.5 352,-502.5 358,-496.5 364,-496.5"/>
<text text-anchor="middle" x="405" y="-574.3" font-family="Times,serif" font-size="14.00">HomeController</text>
<polyline fill="none" stroke="black" points="352,-566.5 458,-566.5 "/>
<text text-anchor="start" x="360" y="-551.3" font-family="Times,serif" font-size="14.00">index</text>
<polyline fill="none" stroke="black" points="352,-543.5 458,-543.5 "/>
<polyline fill="none" stroke="black" points="352,-519.5 458,-519.5 "/>
<text text-anchor="start" x="360" y="-504.3" font-family="Times,serif" font-size="14.00">_layout</text>
</g>
<!-- ContactsController -->
<g id="node8" class="node"><title>ContactsController</title>
<path fill="none" stroke="black" d="M204,-0.5C204,-0.5 299,-0.5 299,-0.5 305,-0.5 311,-6.5 311,-12.5 311,-12.5 311,-81.5 311,-81.5 311,-87.5 305,-93.5 299,-93.5 299,-93.5 204,-93.5 204,-93.5 198,-93.5 192,-87.5 192,-81.5 192,-81.5 192,-12.5 192,-12.5 192,-6.5 198,-0.5 204,-0.5"/>
<text text-anchor="middle" x="251.5" y="-78.3" font-family="Times,serif" font-size="14.00">ContactsController</text>
<polyline fill="none" stroke="black" points="192,-70.5 311,-70.5 "/>
<text text-anchor="start" x="200" y="-55.3" font-family="Times,serif" font-size="14.00">index</text>
<polyline fill="none" stroke="black" points="192,-47.5 311,-47.5 "/>
<polyline fill="none" stroke="black" points="192,-23.5 311,-23.5 "/>
<text text-anchor="start" x="200" y="-8.3" font-family="Times,serif" font-size="14.00">_layout</text>
</g>
<!-- NewsController -->
<g id="node9" class="node"><title>NewsController</title>
<path fill="none" stroke="black" d="M28,-240.5C28,-240.5 107,-240.5 107,-240.5 113,-240.5 119,-246.5 119,-252.5 119,-252.5 119,-366.5 119,-366.5 119,-372.5 113,-378.5 107,-378.5 107,-378.5 28,-378.5 28,-378.5 22,-378.5 16,-372.5 16,-366.5 16,-366.5 16,-252.5 16,-252.5 16,-246.5 22,-240.5 28,-240.5"/>
<text text-anchor="middle" x="67.5" y="-363.3" font-family="Times,serif" font-size="14.00">NewsController</text>
<polyline fill="none" stroke="black" points="16,-355.5 119,-355.5 "/>
<text text-anchor="start" x="24" y="-340.3" font-family="Times,serif" font-size="14.00">index</text>
<text text-anchor="start" x="24" y="-325.3" font-family="Times,serif" font-size="14.00">show</text>
<polyline fill="none" stroke="black" points="16,-317.5 119,-317.5 "/>
<polyline fill="none" stroke="black" points="16,-293.5 119,-293.5 "/>
<text text-anchor="start" x="24" y="-278.3" font-family="Times,serif" font-size="14.00">_layout</text>
<text text-anchor="start" x="24" y="-263.3" font-family="Times,serif" font-size="14.00">news_params</text>
<text text-anchor="start" x="24" y="-248.3" font-family="Times,serif" font-size="14.00">set_news</text>
</g>
<!-- AnimalsController -->
<g id="node10" class="node"><title>AnimalsController</title>
<path fill="none" stroke="black" d="M204,-368.5C204,-368.5 299,-368.5 299,-368.5 305,-368.5 311,-374.5 311,-380.5 311,-380.5 311,-569.5 311,-569.5 311,-575.5 305,-581.5 299,-581.5 299,-581.5 204,-581.5 204,-581.5 198,-581.5 192,-575.5 192,-569.5 192,-569.5 192,-380.5 192,-380.5 192,-374.5 198,-368.5 204,-368.5"/>
<text text-anchor="middle" x="251.5" y="-566.3" font-family="Times,serif" font-size="14.00">AnimalsController</text>
<polyline fill="none" stroke="black" points="192,-558.5 311,-558.5 "/>
<text text-anchor="start" x="200" y="-543.3" font-family="Times,serif" font-size="14.00">create</text>
<text text-anchor="start" x="200" y="-528.3" font-family="Times,serif" font-size="14.00">destroy</text>
<text text-anchor="start" x="200" y="-513.3" font-family="Times,serif" font-size="14.00">edit</text>
<text text-anchor="start" x="200" y="-498.3" font-family="Times,serif" font-size="14.00">index</text>
<text text-anchor="start" x="200" y="-483.3" font-family="Times,serif" font-size="14.00">new</text>
<text text-anchor="start" x="200" y="-468.3" font-family="Times,serif" font-size="14.00">show</text>
<text text-anchor="start" x="200" y="-453.3" font-family="Times,serif" font-size="14.00">update</text>
<polyline fill="none" stroke="black" points="192,-445.5 311,-445.5 "/>
<polyline fill="none" stroke="black" points="192,-421.5 311,-421.5 "/>
<text text-anchor="start" x="200" y="-406.3" font-family="Times,serif" font-size="14.00">_layout</text>
<text text-anchor="start" x="200" y="-391.3" font-family="Times,serif" font-size="14.00">animal_params</text>
<text text-anchor="start" x="200" y="-376.3" font-family="Times,serif" font-size="14.00">set_animal</text>
</g>
<!-- ApplicationController -->
<g id="node11" class="node"><title>ApplicationController</title>
<path fill="none" stroke="black" d="M508,-496.5C508,-496.5 620,-496.5 620,-496.5 626,-496.5 632,-502.5 632,-508.5 632,-508.5 632,-578.5 632,-578.5 632,-584.5 626,-590.5 620,-590.5 620,-590.5 508,-590.5 508,-590.5 502,-590.5 496,-584.5 496,-578.5 496,-578.5 496,-508.5 496,-508.5 496,-502.5 502,-496.5 508,-496.5"/>
<text text-anchor="middle" x="564" y="-575.3" font-family="Times,serif" font-size="14.00">ApplicationController</text>
<polyline fill="none" stroke="black" points="496,-567.5 632,-567.5 "/>
<polyline fill="none" stroke="black" points="496,-543.5 632,-543.5 "/>
<polyline fill="none" stroke="black" points="496,-519.5 632,-519.5 "/>
<text text-anchor="start" x="504" y="-504.3" font-family="Times,serif" font-size="14.00">_layout</text>
</g>
</g>
</svg>
