<?xml version="1.0" encoding="UTF-8" standalone="no"?>
<!DOCTYPE svg PUBLIC "-//W3C//DTD SVG 1.1//EN"
 "http://www.w3.org/Graphics/SVG/1.1/DTD/svg11.dtd">
<!-- Generated by graphviz version 2.36.0 (20140111.2315)
 -->
<!-- Title: models_diagram Pages: 1 -->
<svg width="887pt" height="250pt"
 viewBox="0.00 0.00 887.00 250.00" xmlns="http://www.w3.org/2000/svg" xmlns:xlink="http://www.w3.org/1999/xlink">
<g id="graph0" class="graph" transform="scale(1 1) rotate(0) translate(4 246)">
<title>models_diagram</title>
<polygon fill="white" stroke="none" points="-4,4 -4,-246 883,-246 883,4 -4,4"/>
<!-- _diagram_info -->
<g id="node1" class="node"><title>_diagram_info</title>
<text text-anchor="start" x="7" y="-145.6" font-family="Times,serif" font-size="13.00">Models diagram</text>
<text text-anchor="start" x="7" y="-131.6" font-family="Times,serif" font-size="13.00">Date: May 31 2015 &#45; 13:47</text>
<text text-anchor="start" x="7" y="-117.6" font-family="Times,serif" font-size="13.00">Migration version: 20150526122846</text>
<text text-anchor="start" x="7" y="-103.6" font-family="Times,serif" font-size="13.00">Generated by RailRoady 1.3.0</text>
<text text-anchor="start" x="7" y="-89.6" font-family="Times,serif" font-size="13.00">http://railroady.prestonlee.com</text>
</g>
<!-- Animal -->
<g id="node2" class="node"><title>Animal</title>
<path fill="none" stroke="black" d="M243.5,-30.5C243.5,-30.5 350.5,-30.5 350.5,-30.5 356.5,-30.5 362.5,-36.5 362.5,-42.5 362.5,-42.5 362.5,-199.5 362.5,-199.5 362.5,-205.5 356.5,-211.5 350.5,-211.5 350.5,-211.5 243.5,-211.5 243.5,-211.5 237.5,-211.5 231.5,-205.5 231.5,-199.5 231.5,-199.5 231.5,-42.5 231.5,-42.5 231.5,-36.5 237.5,-30.5 243.5,-30.5"/>
<text text-anchor="middle" x="297" y="-196.3" font-family="Times,serif" font-size="14.00">Animal</text>
<polyline fill="none" stroke="black" points="231.5,-188.5 362.5,-188.5 "/>
<text text-anchor="start" x="239.5" y="-173.3" font-family="Times,serif" font-size="14.00">id :integer</text>
<text text-anchor="start" x="239.5" y="-158.3" font-family="Times,serif" font-size="14.00">animal_type :string</text>
<text text-anchor="start" x="239.5" y="-143.3" font-family="Times,serif" font-size="14.00">name :string</text>
<text text-anchor="start" x="239.5" y="-128.3" font-family="Times,serif" font-size="14.00">sex :string</text>
<text text-anchor="start" x="239.5" y="-113.3" font-family="Times,serif" font-size="14.00">size :string</text>
<text text-anchor="start" x="239.5" y="-98.3" font-family="Times,serif" font-size="14.00">age :string</text>
<text text-anchor="start" x="239.5" y="-83.3" font-family="Times,serif" font-size="14.00">sterile :string</text>
<text text-anchor="start" x="239.5" y="-68.3" font-family="Times,serif" font-size="14.00">description :string</text>
<text text-anchor="start" x="239.5" y="-53.3" font-family="Times,serif" font-size="14.00">created_at :datetime</text>
<text text-anchor="start" x="239.5" y="-38.3" font-family="Times,serif" font-size="14.00">updated_at :datetime</text>
</g>
<!-- Admin -->
<g id="node3" class="node"><title>Admin</title>
<path fill="none" stroke="black" d="M393,-0.5C393,-0.5 569,-0.5 569,-0.5 575,-0.5 581,-6.5 581,-12.5 581,-12.5 581,-229.5 581,-229.5 581,-235.5 575,-241.5 569,-241.5 569,-241.5 393,-241.5 393,-241.5 387,-241.5 381,-235.5 381,-229.5 381,-229.5 381,-12.5 381,-12.5 381,-6.5 387,-0.5 393,-0.5"/>
<text text-anchor="middle" x="481" y="-226.3" font-family="Times,serif" font-size="14.00">Admin</text>
<polyline fill="none" stroke="black" points="381,-218.5 581,-218.5 "/>
<text text-anchor="start" x="389" y="-203.3" font-family="Times,serif" font-size="14.00">id :integer</text>
<text text-anchor="start" x="389" y="-188.3" font-family="Times,serif" font-size="14.00">email :string</text>
<text text-anchor="start" x="389" y="-173.3" font-family="Times,serif" font-size="14.00">encrypted_password :string</text>
<text text-anchor="start" x="389" y="-158.3" font-family="Times,serif" font-size="14.00">reset_password_token :string</text>
<text text-anchor="start" x="389" y="-143.3" font-family="Times,serif" font-size="14.00">reset_password_sent_at :datetime</text>
<text text-anchor="start" x="389" y="-128.3" font-family="Times,serif" font-size="14.00">remember_created_at :datetime</text>
<text text-anchor="start" x="389" y="-113.3" font-family="Times,serif" font-size="14.00">sign_in_count :integer</text>
<text text-anchor="start" x="389" y="-98.3" font-family="Times,serif" font-size="14.00">current_sign_in_at :datetime</text>
<text text-anchor="start" x="389" y="-83.3" font-family="Times,serif" font-size="14.00">last_sign_in_at :datetime</text>
<text text-anchor="start" x="389" y="-68.3" font-family="Times,serif" font-size="14.00">current_sign_in_ip :string</text>
<text text-anchor="start" x="389" y="-53.3" font-family="Times,serif" font-size="14.00">last_sign_in_ip :string</text>
<text text-anchor="start" x="389" y="-38.3" font-family="Times,serif" font-size="14.00">created_at :datetime</text>
<text text-anchor="start" x="389" y="-23.3" font-family="Times,serif" font-size="14.00">updated_at :datetime</text>
<text text-anchor="start" x="389" y="-8.3" font-family="Times,serif" font-size="14.00">username :string</text>
</g>
<!-- News -->
<g id="node4" class="node"><title>News</title>
<path fill="none" stroke="black" d="M611.5,-68C611.5,-68 718.5,-68 718.5,-68 724.5,-68 730.5,-74 730.5,-80 730.5,-80 730.5,-162 730.5,-162 730.5,-168 724.5,-174 718.5,-174 718.5,-174 611.5,-174 611.5,-174 605.5,-174 599.5,-168 599.5,-162 599.5,-162 599.5,-80 599.5,-80 599.5,-74 605.5,-68 611.5,-68"/>
<text text-anchor="middle" x="665" y="-158.8" font-family="Times,serif" font-size="14.00">News</text>
<polyline fill="none" stroke="black" points="599.5,-151 730.5,-151 "/>
<text text-anchor="start" x="607.5" y="-135.8" font-family="Times,serif" font-size="14.00">id :integer</text>
<text text-anchor="start" x="607.5" y="-120.8" font-family="Times,serif" font-size="14.00">title :string</text>
<text text-anchor="start" x="607.5" y="-105.8" font-family="Times,serif" font-size="14.00">text :string</text>
<text text-anchor="start" x="607.5" y="-90.8" font-family="Times,serif" font-size="14.00">created_at :datetime</text>
<text text-anchor="start" x="607.5" y="-75.8" font-family="Times,serif" font-size="14.00">updated_at :datetime</text>
</g>
<!-- Contact -->
<g id="node5" class="node"><title>Contact</title>
<path fill="none" stroke="black" d="M760.5,-83C760.5,-83 867.5,-83 867.5,-83 873.5,-83 879.5,-89 879.5,-95 879.5,-95 879.5,-147 879.5,-147 879.5,-153 873.5,-159 867.5,-159 867.5,-159 760.5,-159 760.5,-159 754.5,-159 748.5,-153 748.5,-147 748.5,-147 748.5,-95 748.5,-95 748.5,-89 754.5,-83 760.5,-83"/>
<text text-anchor="middle" x="814" y="-143.8" font-family="Times,serif" font-size="14.00">Contact</text>
<polyline fill="none" stroke="black" points="748.5,-136 879.5,-136 "/>
<text text-anchor="start" x="756.5" y="-120.8" font-family="Times,serif" font-size="14.00">id :integer</text>
<text text-anchor="start" x="756.5" y="-105.8" font-family="Times,serif" font-size="14.00">created_at :datetime</text>
<text text-anchor="start" x="756.5" y="-90.8" font-family="Times,serif" font-size="14.00">updated_at :datetime</text>
</g>
</g>
</svg>
